<?xml version="1.0" encoding="utf-8"?>
<!-- Generator: Adobe Illustrator 23.0.0, SVG Export Plug-In . SVG Version: 6.00 Build 0)  -->
<svg version="1.1" id="Layer_1" xmlns="http://www.w3.org/2000/svg" xmlns:xlink="http://www.w3.org/1999/xlink" x="0px" y="0px"
	 viewBox="0 0 1200 1075" style="enable-background:new 0 0 1200 1075;" xml:space="preserve">
<style type="text/css">
	.st0{fill:#586172;}
	.st1{fill:#A6A8AB;}
	.st2{fill:#D0D2D3;}
	.st3{fill:#2D1226;}
	.st4{fill:#B2C6D0;}
	.st5{fill:#66737A;}
	.st6{fill:#F9A433;}
	.st7{fill:#C36626;}
	.st8{fill:#FFFFFF;}
	.st9{fill:#94A6AE;}
	.st10{fill:#D5DEE4;}
	.st11{fill:#F2B76E;}
	.st12{fill:#13799C;}
	.st13{fill:#00465D;}
	.st14{fill:#6F98A8;}
	.st15{fill:#577A87;}
	.st16{fill:#707E84;}
	.st17{fill:#F16354;}
	.st18{fill:#5D2900;}
	.st19{fill:#3A4157;}
	.st20{fill:none;stroke:#3A4157;stroke-width:1.1117;stroke-miterlimit:10;}
	.st21{fill:url(#SVGID_1_);}
	.st22{fill:url(#SVGID_2_);}
	.st23{fill:url(#SVGID_3_);}
	.st24{fill:url(#SVGID_4_);}
</style>
<g>
	<g>
		<path class="st0" d="M1155.1,789.2c17.5-55.2,27-114,27-175c0-319.3-258.8-578.1-578.1-578.1S25.9,294.9,25.9,614.2
			c0,61,9.5,119.8,27,175H1155.1z"/>
		<g>
			<g>
				<polygon class="st1" points="780.7,678.7 149.6,678.7 149.6,595.8 149,595.8 149,594.3 152.5,594.3 152.5,552.7 150.9,552.7 
					150.9,551.2 157.8,551.2 157.8,529.8 156.2,529.8 156.2,528.2 164,528.2 173.7,514 183.2,528.2 189.7,528.2 189.7,529.8 
					188.1,529.8 188.1,551.2 195,551.2 195,552.7 193.4,552.7 193.4,594.3 197,594.3 197,595.8 196.4,595.8 196.4,611.1 
					197.6,616.5 209.6,612.1 209.6,617.4 212.8,617.4 212.7,545.5 239.1,533.7 239.1,533.7 239.1,533.7 239.2,533.7 239.1,533.7 
					239.1,569.2 243.1,569.2 243.1,566.8 247.1,566.8 247.1,565.5 260.9,565.5 260.9,566.8 264.9,566.8 264.9,569.2 267.9,569.2 
					267.9,597.9 283.9,597.9 283.9,600.3 286.1,600.3 286.1,577.9 285,577.9 285,575.5 286.1,575.5 286.1,574.4 288.9,574.4 
					288.9,548.2 288,548.2 288,546.3 288.9,546.3 288.9,545.4 291.1,545.4 291.1,516.3 290.2,516.3 290.2,514.4 291.1,514.4 
					291.1,514.1 294.4,514.1 294.4,512.5 297,512.5 297,511.6 306.1,511.6 306.1,512.5 308.8,512.5 308.8,514.1 310.7,514.1 
					310.7,514.4 311.6,514.4 311.6,516.3 310.7,516.3 310.7,545.4 312.9,545.4 312.9,546.3 313.8,546.3 313.8,548.2 312.9,548.2 
					312.9,574.4 315.7,574.4 315.7,575.5 316.7,575.5 316.7,577.9 315.7,577.9 315.7,610.1 319.1,610.1 319.1,611.5 320.4,611.5 
					320.4,614.4 319.1,614.4 319.1,621.1 323.5,621.1 323.5,562.1 326.7,562.1 326.7,559.4 328,559.4 328,550.5 335.9,553.1 
					343.9,550.5 343.9,555.8 347.7,557 347.7,559.4 349,559.4 349,562.1 352.2,562.1 352.2,596.2 358.7,596.2 358.7,569.2 
					362.3,569.2 362.3,566.8 384.2,566.8 384.2,569.2 387.1,569.2 387.1,623.6 388.3,623.6 388.7,548.4 388.8,548.4 415.1,544.2 
					415,544.3 415.2,544.2 415.1,559.9 417.3,562.1 417,623.6 420.1,623.6 420.1,589.4 418.8,589.9 418.8,587.1 423.4,585.4 
					423.4,577.3 445,569.3 445,552.7 443.4,552.7 443.4,551.2 450.4,551.2 450.4,511.3 448.8,511.3 448.8,509.8 456.6,509.8 
					466.2,495.6 475.7,509.8 482.2,509.8 482.2,511.3 480.6,511.3 480.6,551.2 487.6,551.2 487.6,552.7 486,552.7 486,594.3 
					489.5,594.3 489.5,595.8 488.9,595.8 488.9,611.1 503.5,616.5 515.5,612.1 515.5,617.4 518.7,617.4 518.6,545.5 545,533.7 
					545,533.7 545,533.7 545.1,533.7 545,533.7 545,569.2 549,569.2 549,566.8 553,566.8 553,565.5 566.8,565.5 566.8,566.8 
					570.8,566.8 570.8,569.2 573.8,569.2 573.8,597.9 589.8,597.9 589.8,600.3 592,600.3 592,577.9 590.9,577.9 590.9,575.5 
					592,575.5 592,574.4 594.8,574.4 594.8,548.2 593.9,548.2 593.9,546.3 594.8,546.3 594.8,545.4 597,545.4 597,516.3 
					596.1,516.3 596.1,514.4 597,514.4 597,514.1 600.3,514.1 600.3,512.5 602.9,512.5 602.9,511.6 612,511.6 612,512.5 
					614.6,512.5 614.6,514.1 616.6,514.1 616.6,514.4 617.5,514.4 617.5,516.3 616.6,516.3 616.6,545.4 618.8,545.4 618.8,546.3 
					619.6,546.3 619.6,548.2 618.8,548.2 618.8,574.4 621.6,574.4 621.6,575.5 622.6,575.5 622.6,577.9 621.6,577.9 621.6,610.1 
					625,610.1 625,611.5 626.3,611.5 626.3,614.4 625,614.4 625,621.1 648.9,621.1 648.9,562.1 652.1,562.1 652.1,559.4 
					653.4,559.4 653.4,550.5 661.3,553.1 669.3,550.5 669.3,555.8 673.1,557 673.1,559.4 674.4,559.4 674.4,562.1 677.6,562.1 
					677.6,596.2 684.1,596.2 684.1,569.2 687.8,569.2 687.8,566.8 709.6,566.8 709.6,569.2 712.5,569.2 712.5,623.6 713.8,623.6 
					714.1,548.4 714.2,548.4 740.5,544.2 740.4,544.3 740.6,544.2 740.5,559.9 742.7,562.1 742.4,623.6 745.5,623.6 745.5,589.4 
					744.2,589.9 744.2,587.1 748.8,585.4 748.8,577.3 777.4,566.7 777.4,574.8 782,573.1 782,576 780.7,576.5 				"/>
				<polygon class="st2" points="77.5,789.2 821.5,789.2 821.5,598.1 822.1,598.1 822.1,596.4 818.1,596.4 818.1,564.4 772.3,564.4 
					772.3,596.4 768.3,596.4 768.3,598.1 769,598.1 769,615.3 752.6,621.4 739.2,616.4 739.2,622.3 735.7,622.3 735.7,541.8 
					706.1,528.6 706.1,528.6 706.1,528.6 706.1,528.6 706.1,528.6 706.1,568.4 701.7,568.4 701.7,565.6 697.2,565.6 697.2,564.2 
					681.7,564.2 681.7,565.6 677.2,565.6 677.2,568.4 673.9,568.4 673.9,600.5 656,600.5 656,603.3 653.5,603.3 653.5,578.1 
					654.7,578.1 654.7,575.5 653.5,575.5 653.5,574.2 650.3,574.2 650.3,544.9 651.3,544.9 651.3,542.7 650.3,542.7 650.3,541.7 
					647.9,541.7 647.9,509 648.9,509 648.9,506.9 647.9,506.9 647.9,506.6 644.2,506.6 644.2,504.8 641.2,504.8 641.2,503.9 
					631,503.9 631,504.8 628.1,504.8 628.1,506.6 625.9,506.6 625.9,506.9 625,506.9 625,509 625.9,509 625.9,541.7 623.5,541.7 
					623.5,542.7 622.5,542.7 622.5,544.9 623.5,544.9 623.5,574.2 620.4,574.2 620.4,575.5 619.1,575.5 619.1,578.1 620.4,578.1 
					620.4,614.2 616.5,614.2 616.5,615.8 615,615.8 615,619 616.5,619 616.5,626.5 589.7,626.5 589.7,560.4 586.2,560.4 
					586.2,557.4 584.7,557.4 584.7,547.4 575.8,550.4 566.8,547.4 566.8,553.3 562.6,554.7 562.6,557.4 561.2,557.4 561.2,560.4 
					557.6,560.4 557.6,598.7 550.3,598.7 550.3,568.4 546.2,568.4 546.2,565.6 521.8,565.6 521.8,568.4 518.5,568.4 518.5,629.3 
					517.1,629.3 516.7,545 516.6,545.1 487,540.3 487.2,540.5 487,540.3 487.1,557.9 484.6,560.4 484.9,629.3 481.4,629.3 
					481.4,591 482.9,591.6 482.9,588.4 477.8,586.5 477.8,577.5 453.5,568.5 453.5,549.9 455.3,549.9 455.3,548.2 447.6,548.2 
					447.6,503.5 449.3,503.5 449.3,501.8 440.6,501.8 429.8,485.9 419.2,501.8 411.9,501.8 411.9,503.5 413.7,503.5 413.7,548.2 
					405.9,548.2 405.9,549.9 407.7,549.9 407.7,596.4 403.7,596.4 403.7,598.1 404.4,598.1 404.4,615.3 388,621.4 374.6,616.4 
					374.6,622.3 371.1,622.3 371.1,541.8 341.5,528.6 341.5,528.6 341.5,528.6 341.5,528.6 341.5,528.6 341.5,568.4 337,568.4 
					337,565.6 332.6,565.6 332.6,564.2 317.1,564.2 317.1,565.6 312.6,565.6 312.6,568.4 309.3,568.4 309.3,600.5 291.4,600.5 
					291.4,603.3 288.8,603.3 288.8,578.1 290.1,578.1 290.1,575.5 288.8,575.5 288.8,574.2 285.7,574.2 285.7,544.9 286.7,544.9 
					286.7,542.7 285.7,542.7 285.7,541.7 283.3,541.7 283.3,509 284.3,509 284.3,506.9 283.3,506.9 283.3,506.6 279.6,506.6 
					279.6,504.8 276.6,504.8 276.6,503.9 266.4,503.9 266.4,504.8 263.5,504.8 263.5,506.6 261.3,506.6 261.3,506.9 260.3,506.9 
					260.3,509 261.3,509 261.3,541.7 258.9,541.7 258.9,542.7 257.9,542.7 257.9,544.9 258.9,544.9 258.9,574.2 255.8,574.2 
					255.8,575.5 254.5,575.5 254.5,578.1 255.8,578.1 255.8,614.2 251.9,614.2 251.9,615.8 250.4,615.8 250.4,619 251.9,619 
					251.9,626.5 225.1,626.5 225.1,560.4 221.5,560.4 221.5,557.4 220.1,557.4 220.1,547.4 211.2,550.4 202.2,547.4 202.2,553.3 
					198,554.7 198,557.4 196.6,557.4 196.6,560.4 193,560.4 193,598.7 185.7,598.7 185.7,568.4 181.6,568.4 181.6,565.6 
					157.1,565.6 157.1,568.4 153.8,568.4 153.8,629.3 152.5,629.3 152.1,545 152,545.1 122.4,540.3 122.6,540.5 122.4,540.3 
					122.5,557.9 120,560.4 120.3,629.3 116.8,629.3 116.8,591 118.3,591.6 118.3,588.4 113.2,586.5 113.2,577.5 81.1,565.6 
					81.1,574.7 76,572.8 76,576 77.5,576.6 				"/>
			</g>
			<g>
				<polygon class="st1" points="1089.3,678.7 458.2,678.7 458.2,595.8 457.5,595.8 457.5,594.3 461.1,594.3 461.1,552.7 
					459.5,552.7 459.5,551.2 466.4,551.2 466.4,529.8 464.8,529.8 464.8,528.2 472.6,528.2 482.3,514 491.8,528.2 498.3,528.2 
					498.3,529.8 496.7,529.8 496.7,551.2 503.6,551.2 503.6,552.7 502,552.7 502,594.3 505.6,594.3 505.6,595.8 505,595.8 
					505,611.1 506.2,616.5 518.2,612.1 518.2,617.4 521.3,617.4 521.3,545.5 547.7,533.7 547.7,533.7 547.7,533.7 547.7,533.7 
					547.7,533.7 547.7,569.2 551.7,569.2 551.7,566.8 555.7,566.8 555.7,565.5 569.5,565.5 569.5,566.8 573.5,566.8 573.5,569.2 
					576.5,569.2 576.5,597.9 592.5,597.9 592.5,600.3 594.7,600.3 594.7,577.9 593.6,577.9 593.6,575.5 594.7,575.5 594.7,574.4 
					597.5,574.4 597.5,548.2 596.6,548.2 596.6,546.3 597.5,546.3 597.5,545.4 599.7,545.4 599.7,516.3 598.8,516.3 598.8,514.4 
					599.7,514.4 599.7,514.1 603,514.1 603,512.5 605.6,512.5 605.6,511.6 614.7,511.6 614.7,512.5 617.3,512.5 617.3,514.1 
					619.3,514.1 619.3,514.4 620.2,514.4 620.2,516.3 619.3,516.3 619.3,545.4 621.5,545.4 621.5,546.3 622.3,546.3 622.3,548.2 
					621.5,548.2 621.5,574.4 624.3,574.4 624.3,575.5 625.3,575.5 625.3,577.9 624.3,577.9 624.3,610.1 627.7,610.1 627.7,611.5 
					629,611.5 629,614.4 627.7,614.4 627.7,621.1 632.1,621.1 632.1,562.1 635.3,562.1 635.3,559.4 636.6,559.4 636.6,550.5 
					644.5,553.1 652.5,550.5 652.5,555.8 656.3,557 656.3,559.4 657.6,559.4 657.6,562.1 660.8,562.1 660.8,596.2 667.2,596.2 
					667.2,569.2 670.9,569.2 670.9,566.8 692.7,566.8 692.7,569.2 695.7,569.2 695.7,623.6 696.9,623.6 697.3,548.4 697.4,548.4 
					723.7,544.2 723.6,544.3 723.8,544.2 723.7,559.9 725.9,562.1 725.6,623.6 728.7,623.6 728.7,589.4 727.4,589.9 727.4,587.1 
					732,585.4 732,577.3 753.6,569.3 753.6,552.7 752,552.7 752,551.2 759,551.2 759,511.3 757.4,511.3 757.4,509.8 765.2,509.8 
					774.8,495.6 784.3,509.8 790.8,509.8 790.8,511.3 789.2,511.3 789.2,551.2 796.1,551.2 796.1,552.7 794.5,552.7 794.5,594.3 
					798.1,594.3 798.1,595.8 797.5,595.8 797.5,611.1 812.1,616.5 824.1,612.1 824.1,617.4 827.2,617.4 827.2,545.5 853.6,533.7 
					853.6,533.7 853.6,533.7 853.6,533.7 853.6,533.7 853.6,569.2 857.6,569.2 857.6,566.8 861.6,566.8 861.6,565.5 875.4,565.5 
					875.4,566.8 879.4,566.8 879.4,569.2 882.4,569.2 882.4,597.9 898.3,597.9 898.3,600.3 900.6,600.3 900.6,577.9 899.5,577.9 
					899.5,575.5 900.6,575.5 900.6,574.4 903.4,574.4 903.4,548.2 902.5,548.2 902.5,546.3 903.4,546.3 903.4,545.4 905.6,545.4 
					905.6,516.3 904.7,516.3 904.7,514.4 905.6,514.4 905.6,514.1 908.9,514.1 908.9,512.5 911.5,512.5 911.5,511.6 920.6,511.6 
					920.6,512.5 923.2,512.5 923.2,514.1 925.2,514.1 925.2,514.4 926.1,514.4 926.1,516.3 925.2,516.3 925.2,545.4 927.4,545.4 
					927.4,546.3 928.2,546.3 928.2,548.2 927.4,548.2 927.4,574.4 930.2,574.4 930.2,575.5 931.2,575.5 931.2,577.9 930.2,577.9 
					930.2,610.1 933.6,610.1 933.6,611.5 934.9,611.5 934.9,614.4 933.6,614.4 933.6,621.1 957.5,621.1 957.5,562.1 960.7,562.1 
					960.7,559.4 962,559.4 962,550.5 969.9,553.1 977.9,550.5 977.9,555.8 981.7,557 981.7,559.4 983,559.4 983,562.1 986.2,562.1 
					986.2,596.2 992.7,596.2 992.7,569.2 996.3,569.2 996.3,566.8 1018.2,566.8 1018.2,569.2 1021.1,569.2 1021.1,623.6 
					1022.3,623.6 1022.7,548.4 1022.8,548.4 1049.1,544.2 1049,544.3 1049.2,544.2 1049.1,559.9 1051.3,562.1 1051,623.6 
					1054.1,623.6 1054.1,589.4 1052.8,589.9 1052.8,587.1 1057.4,585.4 1057.4,577.3 1086,566.7 1086,574.8 1090.6,573.1 
					1090.6,576 1089.3,576.5 				"/>
				<polygon class="st2" points="386.1,789.2 1132.1,789.2 1132.1,596.4 1126.7,596.4 1126.7,549.9 1128.5,549.9 1128.5,548.2 
					1120.8,548.2 1120.8,456.6 1122.6,456.6 1122.6,454.9 1113.8,454.9 1103,439 1092.4,454.9 1085.1,454.9 1085.1,456.6 
					1086.9,456.6 1086.9,548.2 1079.1,548.2 1079.1,549.9 1080.9,549.9 1080.9,596.4 1076.9,596.4 1076.9,598.1 1077.6,598.1 
					1077.6,615.3 1061.2,621.4 1047.8,616.4 1047.8,622.3 1044.3,622.3 1044.3,541.8 1014.7,528.6 1014.7,528.6 1014.7,528.6 
					1014.7,528.6 1014.7,528.6 1014.7,568.4 1010.3,568.4 1010.3,565.6 1005.8,565.6 1005.8,564.2 990.3,564.2 990.3,565.6 
					985.8,565.6 985.8,568.4 982.5,568.4 982.5,600.5 964.6,600.5 964.6,603.3 962.1,603.3 962.1,578.1 963.3,578.1 963.3,575.5 
					962.1,575.5 962.1,574.2 958.9,574.2 958.9,544.9 959.9,544.9 959.9,542.7 958.9,542.7 958.9,541.7 956.5,541.7 956.5,509 
					957.5,509 957.5,506.9 956.5,506.9 956.5,506.6 952.8,506.6 952.8,504.8 949.8,504.8 949.8,503.9 939.6,503.9 939.6,504.8 
					936.7,504.8 936.7,506.6 934.5,506.6 934.5,506.9 933.5,506.9 933.5,509 934.5,509 934.5,541.7 932.1,541.7 932.1,542.7 
					931.1,542.7 931.1,544.9 932.1,544.9 932.1,574.2 929,574.2 929,575.5 927.7,575.5 927.7,578.1 929,578.1 929,614.2 
					925.1,614.2 925.1,615.8 923.6,615.8 923.6,619 925.1,619 925.1,626.5 898.3,626.5 898.3,560.4 894.8,560.4 894.8,557.4 
					893.3,557.4 893.3,547.4 884.4,550.4 875.4,547.4 875.4,553.3 871.2,554.7 871.2,557.4 869.8,557.4 869.8,560.4 866.2,560.4 
					866.2,598.7 858.9,598.7 858.9,568.4 854.8,568.4 854.8,565.6 830.3,565.6 830.3,568.4 827,568.4 827,629.3 825.7,629.3 
					825.3,545 825.2,545.1 795.6,540.3 795.8,540.5 795.6,540.3 795.7,557.9 793.2,560.4 793.5,629.3 790,629.3 790,591 
					791.5,591.6 791.5,588.4 786.4,586.5 786.4,577.5 762.1,568.5 762.1,549.9 763.9,549.9 763.9,548.2 756.2,548.2 756.2,503.5 
					757.9,503.5 757.9,501.8 749.2,501.8 738.4,485.9 727.8,501.8 720.5,501.8 720.5,503.5 722.3,503.5 722.3,548.2 714.5,548.2 
					714.5,549.9 716.3,549.9 716.3,596.4 712.3,596.4 712.3,598.1 713,598.1 713,615.3 696.6,621.4 683.2,616.4 683.2,622.3 
					679.6,622.3 679.7,541.8 650.1,528.6 650.1,528.6 650.1,528.6 650.1,528.6 650.1,528.6 650.1,568.4 645.6,568.4 645.6,565.6 
					641.2,565.6 641.2,564.2 625.7,564.2 625.7,565.6 621.2,565.6 621.2,568.4 617.9,568.4 617.9,600.5 600,600.5 600,603.3 
					597.4,603.3 597.4,578.1 598.7,578.1 598.7,575.5 597.4,575.5 597.4,574.2 594.3,574.2 594.3,544.9 595.3,544.9 595.3,542.7 
					594.3,542.7 594.3,541.7 591.9,541.7 591.9,509 592.8,509 592.8,506.9 591.9,506.9 591.9,506.6 588.2,506.6 588.2,504.8 
					585.2,504.8 585.2,503.9 575,503.9 575,504.8 572.1,504.8 572.1,506.6 569.9,506.6 569.9,506.9 568.9,506.9 568.9,509 
					569.9,509 569.9,541.7 567.5,541.7 567.5,542.7 566.5,542.7 566.5,544.9 567.5,544.9 567.5,574.2 564.3,574.2 564.3,575.5 
					563.1,575.5 563.1,578.1 564.3,578.1 564.3,614.2 560.5,614.2 560.5,615.8 559,615.8 559,619 560.5,619 560.5,626.5 
					533.7,626.5 533.7,560.4 530.1,560.4 530.1,557.4 528.7,557.4 528.7,547.4 519.8,550.4 510.8,547.4 510.8,553.3 506.6,554.7 
					506.6,557.4 505.1,557.4 505.1,560.4 501.6,560.4 501.6,598.7 494.3,598.7 494.3,568.4 490.2,568.4 490.2,565.6 465.7,565.6 
					465.7,568.4 462.4,568.4 462.4,629.3 461,629.3 460.7,545 460.5,545.1 431,540.3 431.1,540.5 431,540.3 431.1,557.9 
					428.6,560.4 428.9,629.3 425.4,629.3 425.4,591 426.9,591.6 426.9,588.4 421.8,586.5 421.8,577.5 389.7,565.6 389.7,574.7 
					384.6,572.8 384.6,576 386.1,576.6 				"/>
			</g>
		</g>
	</g>
	<g>
		<path class="st3" d="M187,809.9h9.9L149.7,552h-9.9l4.6,24.9H89L84.5,552h-9.9l47.2,257.9h9.9l-6.3-34.5h55.3L187,809.9z
			 M111.2,698.1h55.3l6.1,33.4h-55.3L111.2,698.1z M97,620.8h55.3l6.1,33.4h-55.3L97,620.8z M159.5,659.4l6.1,33.4h-55.3l-6.1-33.4
			H159.5z M145.3,582.1l6.1,33.4H96.1L90,582.1H145.3z M124.4,770.2l-6.1-33.4h55.3l6.1,33.4H124.4z"/>
		<g>
			<polygon class="st4" points="64.6,552 17.4,809.9 27.3,809.9 74.5,552 			"/>
			<polygon class="st5" points="130.8,582.1 61,582.1 61.7,576.9 130.8,576.9 			"/>
			<polygon class="st5" points="123.4,620.8 53.7,620.8 54.4,615.6 123.4,615.6 			"/>
			<polygon class="st5" points="116.1,659.4 46.3,659.4 47,654.2 116.1,654.2 			"/>
			<polygon class="st5" points="109.4,698.1 39.6,698.1 40.4,692.9 109.4,692.9 			"/>
			<polygon class="st5" points="102.6,736.7 32.8,736.7 33.5,731.5 102.6,731.5 			"/>
			<polygon class="st5" points="95.2,775.4 25.4,775.4 26.2,770.2 95.2,770.2 			"/>
			<polygon class="st4" points="129.9,552 82.7,809.9 92.6,809.9 139.8,552 			"/>
		</g>
		<rect x="50.4" y="540.7" class="st6" width="105" height="14.4"/>
		<rect x="50.4" y="540.7" class="st7" width="105" height="7.2"/>
	</g>
	<g>
		<path class="st4" d="M959.8,755.1c0,16.1-13,29-29,29H277.3c-16,0-29-13-29-29V389.7c0-16,13-29,29-29h653.5c16,0,29,13,29,29
			V755.1z"/>
		<rect x="273.7" y="385.1" class="st3" width="660.6" height="374.5"/>
		<rect x="280.8" y="392.9" class="st8" width="646.5" height="358.9"/>
		<path class="st9" d="M151.7,765v1.4c0,20.4,16.5,36.9,36.9,36.9h830.8c20.4,0,36.9-16.5,36.9-36.9V765H151.7z"/>
		<path class="st10" d="M1054.5,777.8c1.2-3.6,1.8-7.4,1.8-11.4V765H151.7v1.4c0,4,0.7,7.8,1.8,11.4H1054.5z"/>
	</g>
	<g>
		<path class="st5" d="M1077.9,339.9c0,15.8-12.8,28.6-28.6,28.6c-15.8,0-28.6-12.8-28.6-28.6c0-15.8,12.8-28.6,28.6-28.6
			C1065.1,311.3,1077.9,324.1,1077.9,339.9z"/>
		<path class="st6" d="M1113.2,228.2L1113.2,228.2c4.9-9.7,7.7-20.7,7.7-32.3c0-39.5-32-71.5-71.5-71.5c-39.5,0-71.5,32-71.5,71.5
			c0,11.9,2.9,23.1,8,33l0,0c7.7,17,18.7,20.1,18.7,44.8c0,24.7,20,44.8,44.8,44.8c24.7,0,44.8-20.1,44.8-44.8
			c0-16.6,5.5-24.7,12-34.2c2.7-3.5,5-7.2,7-11.1C1113.1,228.3,1113.1,228.2,1113.2,228.2z"/>
		<path class="st7" d="M1067.9,306.1c-24.7,0-44.8-20.1-44.8-44.8c0-24.7-11-27.8-18.7-44.8c-5.1-9.9-8-21.1-8-33
			c0-20.9,9-39.7,23.2-52.8c-24.7,11.3-41.8,36.2-41.8,65.1c0,11.9,2.9,23.1,8,33c7.7,17,18.7,20.1,18.7,44.8
			c0,24.7,20,44.8,44.8,44.8c13.2,0,25-5.7,33.2-14.8C1078,305.2,1073,306.1,1067.9,306.1z"/>
		<rect x="1006.7" y="289.8" class="st4" width="85.4" height="49.6"/>
		<rect x="1006.7" y="306.1" class="st5" width="85.4" height="17"/>
	</g>
	<g>
		<g>
			<g>
				<path class="st3" d="M1015.6,728.1c-2.7,1.2-5.9,0-7.1-2.7l-15-33.2c-0.7-1.5-0.6-3.3,0.2-4.8l72.9-137.1l-16.3-35.9l-109,49.3
					c-2.7,1.2-5.9,0-7.1-2.7c-1.2-2.7,0-5.9,2.7-7.1l113.9-51.5c2.7-1.2,5.9,0,7.1,2.7l19.6,43.3c0.7,1.5,0.6,3.3-0.2,4.8
					l-72.9,137.1l13.9,30.7C1019.5,723.7,1018.3,726.9,1015.6,728.1z"/>
			</g>
		</g>
		
			<rect x="830.3" y="531.5" transform="matrix(0.9111 -0.4122 0.4122 0.9111 -146.8583 436.6983)" class="st11" width="217.5" height="54.7"/>
		<path class="st12" d="M993.8,719.9l35.4,78.2c3.8,8.3,13.5,12,21.8,8.2c8.3-3.8,12-13.5,8.2-21.8l-35.4-78.2L993.8,719.9z"/>
		<path class="st13" d="M1050.7,787.1c1.7,3.9,0,8.4-3.8,10.1c-3.9,1.7-8.4,0-10.1-3.8c-1.7-3.9,0-8.4,3.8-10.1
			C1044.4,781.6,1049,783.3,1050.7,787.1z"/>
		
			<rect x="986.5" y="707.2" transform="matrix(0.9111 -0.4122 0.4122 0.9111 -203.6823 478.7784)" class="st13" width="43.2" height="8.8"/>
	</g>
	<g>
		<g>
			<g>
				<g>
					<rect x="476.4" y="623.4" class="st14" width="8.9" height="125.6"/>
					<rect x="485.3" y="623.4" class="st15" width="6.5" height="125.6"/>
				</g>
				<g>
					<rect x="722.7" y="623.4" class="st14" width="8.9" height="125.6"/>
					<rect x="716.2" y="623.4" class="st15" width="6.5" height="125.6"/>
				</g>
			</g>
			<g>
				<g>
					<rect x="699.2" y="623.4" class="st14" width="3.7" height="125.6"/>
					<rect x="696.5" y="623.4" class="st15" width="2.7" height="125.6"/>
				</g>
				<g>
					<rect x="505.1" y="623.4" class="st14" width="3.7" height="125.6"/>
					<rect x="508.8" y="623.4" class="st15" width="2.7" height="125.6"/>
				</g>
			</g>
		</g>
		<rect x="467" y="606.6" class="st6" width="274" height="56.5"/>
		<g>
			<g>
				<g>
					<polygon class="st3" points="692.8,655.9 674.3,655.9 713,613.7 731.6,613.7 					"/>
				</g>
				<g>
					<polygon class="st3" points="653.3,655.9 634.7,655.9 673.5,613.7 692,613.7 					"/>
				</g>
				<g>
					<polygon class="st3" points="731.6,636.6 713.8,655.9 731.6,655.9 					"/>
				</g>
				<g>
					<polygon class="st3" points="476.4,633.1 494.2,613.7 476.4,613.7 					"/>
				</g>
				<g>
					<polygon class="st3" points="613.7,655.9 595.1,655.9 633.9,613.7 652.5,613.7 					"/>
				</g>
				<g>
					<polygon class="st3" points="574.1,655.9 555.6,655.9 594.3,613.7 612.9,613.7 					"/>
				</g>
				<g>
					<polygon class="st3" points="534.6,655.9 516,655.9 554.8,613.7 573.3,613.7 					"/>
				</g>
				<g>
					<polygon class="st3" points="495,655.9 476.4,655.9 515.2,613.7 533.8,613.7 					"/>
				</g>
			</g>
		</g>
	</g>
	<g>
		<rect x="320.9" y="232.9" class="st8" width="566.2" height="318.1"/>
		<rect x="320.9" y="299.8" class="st6" width="566.2" height="163.4"/>
		<rect x="320.9" y="232.9" class="st4" width="566.2" height="26.9"/>
		<rect x="585.9" y="267.7" class="st16" width="36.2" height="6"/>
		<rect x="331.7" y="243.4" class="st16" width="18.1" height="6"/>
		<rect x="359.5" y="243.4" class="st16" width="18.1" height="6"/>
		<rect x="387.2" y="243.4" class="st16" width="18.1" height="6"/>
		<polygon class="st16" points="872.9,240.6 871.7,239.4 865.9,245.2 860.1,239.4 858.9,240.6 864.7,246.4 858.9,252.2 860.1,253.4 
			865.9,247.6 871.7,253.4 872.9,252.2 867.1,246.4 		"/>
		<rect x="355.3" y="484.7" class="st16" width="36.2" height="6"/>
		<rect x="355.3" y="500.9" class="st16" width="198.7" height="6"/>
		<rect x="355.3" y="510.7" class="st16" width="198.7" height="6"/>
		<rect x="355.3" y="520.5" class="st16" width="198.7" height="6"/>
		<rect x="355.3" y="530.3" class="st16" width="198.7" height="6"/>
		<rect x="718.2" y="500.9" class="st16" width="147.8" height="6"/>
		<rect x="718.2" y="510.7" class="st16" width="147.8" height="6"/>
		<rect x="718.2" y="520.5" class="st16" width="147.8" height="6"/>
		<rect x="718.2" y="530.3" class="st16" width="147.8" height="6"/>
		<rect x="641.9" y="267.7" class="st16" width="36.2" height="6"/>
		<rect x="697.8" y="267.7" class="st16" width="36.2" height="6"/>
		<rect x="753.7" y="267.7" class="st16" width="36.2" height="6"/>
		<rect x="809.7" y="267.7" class="st16" width="36.2" height="6"/>
		<rect x="570.4" y="317.9" class="st8" width="295.5" height="124.9"/>
		<g>
			<path class="st17" d="M641.9,529.4c0,2.8-2.3,5.1-5.1,5.1h-41.3c-2.8,0-5.1-2.3-5.1-5.1v-41.3c0-2.8,2.3-5.1,5.1-5.1h41.3
				c2.8,0,5.1,2.3,5.1,5.1V529.4z"/>
			<path class="st8" d="M620.9,511.3v-4.6c2.5-0.9,4.2-3.3,4.2-6.1c0-3.6-2.9-6.5-6.5-6.5c-3.6,0-6.5,2.9-6.5,6.5c0,2,0.9,3.8,2.3,5
				h-4.7c1.4-1.2,2.4-3,2.4-5c0-3.6-2.9-6.5-6.5-6.5c-3.6,0-6.5,2.9-6.5,6.5c0,2.6,1.6,4.9,3.9,5.9v16.9h17.8v-5.7l12.1,3.6v-13.6
				L620.9,511.3z M618.7,497.4c1.8,0,3.2,1.4,3.2,3.2c0,1.8-1.4,3.2-3.2,3.2c-1.8,0-3.2-1.4-3.2-3.2
				C615.5,498.8,616.9,497.4,618.7,497.4z M605.7,497.4c1.8,0,3.2,1.4,3.2,3.2c0,1.8-1.4,3.2-3.2,3.2c-1.8,0-3.2-1.4-3.2-3.2
				C602.5,498.8,603.9,497.4,605.7,497.4z"/>
		</g>
		<path class="st6" d="M703.8,529.4c0,2.8-2.3,5.1-5.1,5.1h-41.3c-2.8,0-5.1-2.3-5.1-5.1v-41.3c0-2.8,2.3-5.1,5.1-5.1h41.3
			c2.8,0,5.1,2.3,5.1,5.1V529.4z"/>
	</g>
	<g>
		<polygon class="st6" points="323.8,565.6 339.5,537.6 308.3,545.4 296.6,554.3 312.1,574.5 		"/>
		<polygon class="st18" points="334.2,547.1 339.5,537.6 328.9,540.2 		"/>
		<path class="st17" d="M143,688c-4.2-5.5-3.2-13.5,2.3-17.7c5.5-4.2,13.5-3.2,17.7,2.4c4.2,5.5,3.2,13.5-2.4,17.7
			C155.1,694.6,147.2,693.5,143,688z"/>
		
			<rect x="148.3" y="601.1" transform="matrix(0.7941 -0.6077 0.6077 0.7941 -323.5811 272.1866)" class="st6" width="183.4" height="25.3"/>
		
			<rect x="153.9" y="661.3" transform="matrix(0.7938 -0.6082 0.6082 0.7938 -376.617 237.061)" class="st4" width="14.7" height="25.3"/>
		
			<rect x="158.5" y="661.3" transform="matrix(0.7937 -0.6083 0.6083 0.7937 -376.6652 237.1217)" class="st5" width="5.6" height="25.3"/>
		
			<rect x="148.3" y="608.3" transform="matrix(0.7941 -0.6077 0.6077 0.7941 -323.5859 272.1924)" class="st7" width="183.4" height="10.8"/>
	</g>
</g>
<g>
	<path class="st8" d="M462.1,854.1l-1.5,1.2c-3.7-4.3-5.6-10.3-5.4-16.8c0.2-6.2,2.5-12.2,6.1-16.3l1.5,1.2
		C455.5,831.7,455.2,846,462.1,854.1z"/>
	<path class="st8" d="M485.6,836.7c0,7.5-2.8,12.8-8.1,12.8c-5.3,0-8.1-5.3-8.1-12.8c0-7.5,2.9-12.8,8.1-12.8
		C482.6,824,485.6,829.3,485.6,836.7z M483.4,836.7c0-6.4-2-10.9-5.9-10.9c-4,0-6,4.5-6,10.9c0,6.5,2,10.9,6,10.9
		C481.4,847.6,483.4,843.2,483.4,836.7z"/>
	<path class="st8" d="M506.2,847.4v1.9h-14.4c0-3.8,2.8-7.2,5.9-10.2c2.9-2.8,5.2-5.1,5.6-8.1c0.4-3.4-1.8-5.1-4.4-5.1
		c-2.6,0-4.5,1.8-5,4.6l-2-0.4c0.8-3.5,3.5-6,7-6c3.1,0,7,1.7,6.5,6.9c-0.3,3.7-3.1,6.5-6.3,9.5c-2.4,2.3-4.5,4.6-5.2,7H506.2z"/>
	<path class="st8" d="M519.7,824.2v25.1h-2v-20.1c-1.1,1.4-3,2.8-4.9,3v-1.4c2.4-0.5,4.5-3.6,4.9-6.6H519.7z"/>
	<path class="st8" d="M535.6,839.1c-0.2,6.2-2.5,12.1-6.1,16.3l-1.5-1.2c7.3-8.3,7.6-22.6,0.7-30.7l1.5-1.1
		C533.9,826.6,535.8,832.6,535.6,839.1z"/>
	<path class="st8" d="M571.6,847.4v1.9h-14.4c0-3.8,2.8-7.2,5.9-10.2c2.9-2.8,5.2-5.1,5.6-8.1c0.4-3.4-1.8-5.1-4.4-5.1
		c-2.6,0-4.5,1.8-5,4.6l-2-0.4c0.8-3.5,3.5-6,7-6c3.1,0,7,1.7,6.5,6.9c-0.3,3.7-3.1,6.5-6.3,9.5c-2.4,2.3-4.5,4.6-5.2,7H571.6z"/>
	<path class="st8" d="M585.2,824.2v25.1h-2v-20.1c-1.1,1.4-3,2.8-4.9,3v-1.4c2.4-0.5,4.5-3.6,4.9-6.6H585.2z"/>
	<path class="st8" d="M610.4,842.1c0,4.1-3.2,7.4-8.5,7.4c-5.4,0-8.5-3.4-8.5-7.4c0-2.9,2.2-5.6,5.1-6.5c-2.3-0.9-3.7-3.2-3.7-5.5
		c0-3.4,3-6.1,7.1-6.1c4.1,0,7.1,2.7,7.1,6.1c0,2.3-1.4,4.6-3.7,5.5C608.3,836.7,610.4,839.2,610.4,842.1z M608.3,842.2
		c0-3-2.3-5.7-6.5-5.7c-4.1,0-6.5,2.7-6.5,5.7c0,3,2.8,5.6,6.5,5.6C605.5,847.8,608.3,845.2,608.3,842.2z M601.9,834.8
		c3.4,0,5.2-2.2,5.2-4.6c0-2.5-2.1-4.5-5.2-4.5c-3.1,0-5.2,2-5.2,4.5C596.7,832.6,598.4,834.8,601.9,834.8z"/>
	<path class="st8" d="M633.7,842.1c0,4.1-3.2,7.4-8.5,7.4s-8.5-3.4-8.5-7.4c0-2.9,2.2-5.6,5.1-6.5c-2.3-0.9-3.7-3.2-3.7-5.5
		c0-3.4,3-6.1,7.1-6.1s7.1,2.7,7.1,6.1c0,2.3-1.4,4.6-3.7,5.5C631.6,836.7,633.7,839.2,633.7,842.1z M631.6,842.2
		c0-3-2.3-5.7-6.5-5.7s-6.5,2.7-6.5,5.7c0,3,2.8,5.6,6.5,5.6C628.8,847.8,631.6,845.2,631.6,842.2z M625.1,834.8
		c3.4,0,5.2-2.2,5.2-4.6c0-2.5-2.1-4.5-5.2-4.5s-5.2,2-5.2,4.5C620,832.6,621.7,834.8,625.1,834.8z"/>
	<path class="st8" d="M669.5,841.1c0,4.7-3.3,8.4-7.9,8.4c-3.2,0-6.2-1.5-7.7-4l1.7-0.9c1.3,1.8,3.1,3,5.7,3c3.5,0,6.3-2.8,6.3-6.5
		c0-3.6-1.9-6.6-5.7-6.6c-2.3,0-4.1,1.2-5.1,3l-2.1-0.3l2.2-13.2h11.9v1.9h-10.1l-1.5,8.7c1.2-1.1,2.8-1.9,4.9-1.9
		C667,832.9,669.5,836.5,669.5,841.1z"/>
	<path class="st8" d="M691.5,842.2c0,4.1-3,7.3-8.1,7.3c-3.3,0-6.3-1.6-7.7-3.9l1.9-0.9c1,1.7,3.3,3,5.7,3c3.9,0,6.2-2.5,6.2-5.6
		c0-3-2-5.6-6.3-5.6c-0.8,0-2.1,0-2.2,0v-1.9c0.2,0,1.7,0,2.2,0c3.3,0,5.1-2.2,5.1-4.8c0-2.5-1.9-4.2-4.8-4.2c-3,0-5,1.8-5.3,3.9
		l-1.9-0.3c0.5-2.9,3.5-5.4,7.2-5.4c4.1,0,6.8,2.5,6.8,6c0,2.3-1.4,4.6-3.5,5.6C689.7,836.7,691.5,839.1,691.5,842.2z"/>
	<path class="st8" d="M715.3,843h-3.5v6.3h-2V843h-11.9v-1.9l11.9-16.9h2v16.9h3.5V843z M709.8,841.1v-13.7l-9.4,13.7H709.8z"/>
	<path class="st8" d="M736.1,824.2v1.9l-11.2,23.3h-2.2L734,826h-13.2v-1.9H736.1z"/>
</g>
<g>
	<path class="st8" d="M468.9,896.1c0,7.5-2.8,12.8-8.1,12.8c-5.3,0-8.1-5.3-8.1-12.8c0-7.5,2.9-12.8,8.1-12.8
		C465.9,883.3,468.9,888.6,468.9,896.1z M466.7,896.1c0-6.4-2-10.9-5.9-10.9c-4,0-6,4.5-6,10.9c0,6.5,2,10.9,6,10.9
		C464.7,907,466.7,902.5,466.7,896.1z"/>
	<path class="st8" d="M492.5,901.4c0,4.1-3.2,7.4-8.5,7.4s-8.5-3.4-8.5-7.4c0-2.9,2.2-5.6,5.1-6.5c-2.3-0.9-3.7-3.2-3.7-5.5
		c0-3.4,3-6.1,7.1-6.1s7.1,2.7,7.1,6.1c0,2.3-1.4,4.6-3.7,5.5C490.5,896,492.5,898.5,492.5,901.4z M490.5,901.5c0-3-2.3-5.7-6.5-5.7
		s-6.5,2.7-6.5,5.7c0,3,2.8,5.6,6.5,5.6S490.5,904.6,490.5,901.5z M484,894.1c3.4,0,5.2-2.2,5.2-4.6c0-2.5-2.1-4.5-5.2-4.5
		s-5.2,2-5.2,4.5C478.9,891.9,480.6,894.1,484,894.1z"/>
	<path class="st8" d="M506.1,883.5v25.1h-2v-20.1c-1.1,1.4-3,2.8-4.9,3v-1.4c2.4-0.5,4.5-3.6,4.9-6.6H506.1z"/>
	<path class="st8" d="M530,901.5c0,4.1-3,7.3-8.1,7.3c-3.3,0-6.3-1.6-7.7-3.9l1.9-0.9c1,1.7,3.3,3,5.7,3c3.9,0,6.2-2.5,6.2-5.6
		c0-3-2-5.6-6.3-5.6c-0.8,0-2.1,0-2.2,0v-1.9c0.2,0,1.7,0,2.2,0c3.3,0,5.1-2.2,5.1-4.8c0-2.5-1.9-4.2-4.8-4.2s-5,1.8-5.3,3.9
		l-1.9-0.3c0.5-2.9,3.5-5.4,7.2-5.4c4.1,0,6.8,2.5,6.8,6c0,2.3-1.4,4.6-3.5,5.6C528.2,896,530,898.4,530,901.5z"/>
	<path class="st8" d="M567.5,901.4c0,4.1-3.2,7.4-8.5,7.4s-8.5-3.4-8.5-7.4c0-2.9,2.2-5.6,5.1-6.5c-2.3-0.9-3.7-3.2-3.7-5.5
		c0-3.4,3-6.1,7.1-6.1s7.1,2.7,7.1,6.1c0,2.3-1.4,4.6-3.7,5.5C565.5,896,567.5,898.5,567.5,901.4z M565.5,901.5c0-3-2.3-5.7-6.5-5.7
		s-6.5,2.7-6.5,5.7c0,3,2.8,5.6,6.5,5.6S565.5,904.6,565.5,901.5z M559,894.1c3.4,0,5.2-2.2,5.2-4.6c0-2.5-2.1-4.5-5.2-4.5
		s-5.2,2-5.2,4.5C553.8,891.9,555.5,894.1,559,894.1z"/>
	<path class="st8" d="M590.8,901.4c0,4.1-3.2,7.4-8.5,7.4s-8.5-3.4-8.5-7.4c0-2.9,2.2-5.6,5.1-6.5c-2.3-0.9-3.7-3.2-3.7-5.5
		c0-3.4,3-6.1,7.1-6.1s7.1,2.7,7.1,6.1c0,2.3-1.4,4.6-3.7,5.5C588.7,896,590.8,898.5,590.8,901.4z M588.7,901.5c0-3-2.3-5.7-6.5-5.7
		s-6.5,2.7-6.5,5.7c0,3,2.8,5.6,6.5,5.6S588.7,904.6,588.7,901.5z M582.3,894.1c3.4,0,5.2-2.2,5.2-4.6c0-2.5-2.1-4.5-5.2-4.5
		s-5.2,2-5.2,4.5C577.1,891.9,578.8,894.1,582.3,894.1z"/>
	<path class="st8" d="M614.1,901.4c0,4.1-3.2,7.4-8.5,7.4c-5.4,0-8.5-3.4-8.5-7.4c0-2.9,2.2-5.6,5.1-6.5c-2.3-0.9-3.7-3.2-3.7-5.5
		c0-3.4,3-6.1,7.1-6.1s7.1,2.7,7.1,6.1c0,2.3-1.4,4.6-3.7,5.5C612,896,614.1,898.5,614.1,901.4z M612,901.5c0-3-2.3-5.7-6.5-5.7
		s-6.5,2.7-6.5,5.7c0,3,2.8,5.6,6.5,5.6C609.2,907.1,612,904.6,612,901.5z M605.6,894.1c3.4,0,5.2-2.2,5.2-4.6
		c0-2.5-2.1-4.5-5.2-4.5s-5.2,2-5.2,4.5C600.4,891.9,602.1,894.1,605.6,894.1z"/>
	<path class="st8" d="M637.4,901.4c0,4.1-3.2,7.4-8.5,7.4s-8.5-3.4-8.5-7.4c0-2.9,2.2-5.6,5.1-6.5c-2.3-0.9-3.7-3.2-3.7-5.5
		c0-3.4,3-6.1,7.1-6.1s7.1,2.7,7.1,6.1c0,2.3-1.4,4.6-3.7,5.5C635.3,896,637.4,898.5,637.4,901.4z M635.3,901.5c0-3-2.3-5.7-6.5-5.7
		s-6.5,2.7-6.5,5.7c0,3,2.8,5.6,6.5,5.6C632.5,907.1,635.3,904.6,635.3,901.5z M628.9,894.1c3.4,0,5.2-2.2,5.2-4.6
		c0-2.5-2.1-4.5-5.2-4.5s-5.2,2-5.2,4.5C623.7,891.9,625.4,894.1,628.9,894.1z"/>
	<path class="st8" d="M674,896.1c0,7.5-2.8,12.8-8.1,12.8c-5.3,0-8.1-5.3-8.1-12.8c0-7.5,2.9-12.8,8.1-12.8
		C671.1,883.3,674,888.6,674,896.1z M671.9,896.1c0-6.4-2-10.9-5.9-10.9c-3.9,0-6,4.5-6,10.9c0,6.5,2,10.9,6,10.9
		C669.9,907,671.9,902.5,671.9,896.1z"/>
	<path class="st8" d="M695.6,901.5c0,4.1-3,7.3-8.1,7.3c-3.3,0-6.3-1.6-7.7-3.9l1.9-0.9c1,1.7,3.3,3,5.7,3c3.9,0,6.2-2.5,6.2-5.6
		c0-3-2-5.6-6.3-5.6c-0.8,0-2.1,0-2.2,0v-1.9c0.2,0,1.7,0,2.2,0c3.3,0,5.1-2.2,5.1-4.8c0-2.5-1.9-4.2-4.8-4.2c-3,0-5,1.8-5.3,3.9
		l-1.9-0.3c0.5-2.9,3.5-5.4,7.2-5.4c4.1,0,6.8,2.5,6.8,6c0,2.3-1.4,4.6-3.5,5.6C693.9,896,695.6,898.4,695.6,901.5z"/>
	<path class="st8" d="M717.6,900.5c0,4.7-3.3,8.4-7.9,8.4c-3.2,0-6.2-1.5-7.7-4l1.7-0.9c1.3,1.8,3.1,3,5.7,3c3.5,0,6.3-2.8,6.3-6.5
		c0-3.6-1.9-6.6-5.7-6.6c-2.3,0-4.1,1.2-5.1,3l-2.1-0.3l2.2-13.2h11.9v1.9h-10.1l-1.5,8.7c1.2-1.1,2.8-1.9,4.9-1.9
		C715.1,892.2,717.6,895.8,717.6,900.5z"/>
	<path class="st8" d="M738.8,883.5v1.9l-11.2,23.3h-2.2l11.3-23.3h-13.2v-1.9H738.8z"/>
</g>
<g>
	<path class="st8" d="M469.9,953.3c0,4.3,0,9.3,0,9.3h-2c0,0,0-5.3,0-9.3c0-4.6-2.1-6.4-5.2-6.4c-3,0-5.5,1.8-5.5,6.4v9.3h-2v-25.1
		h2v10.4c1.3-1.8,3.1-2.8,5.5-2.8C467.8,945,469.9,948.4,469.9,953.3z"/>
	<path class="st8" d="M478.2,954.9c0.4,3.5,3.1,6.2,7,6.2c2.5,0,4.4-1.3,5.6-3.2l1.7,0.8c-1.5,2.4-4,4.2-7.3,4.2c-5.2,0-9-4-9-8.9
		c0-5,3.6-8.9,8.8-8.9c5.2,0,8.1,4,8.1,8.9c0,0.3,0,0.6,0,0.9H478.2z M491.1,953c-0.3-3.5-2.4-6.2-6.2-6.2c-3.8,0-6.3,2.7-6.7,6.2
		H491.1z"/>
	<path class="st8" d="M511.3,962.6l-5.5-7.3l-5.5,7.3h-2.4l6.8-8.9l-6.3-8.4h2.4l5.1,6.8l5.2-6.8h2.4l-6.4,8.4l6.8,8.9H511.3z"/>
	<path class="st8" d="M536.1,954c0,4.9-3.5,8.9-8.8,8.9c-5.2,0-8.9-4-8.9-8.9s3.6-8.9,8.9-8.9C532.6,945,536.1,949.1,536.1,954z
		 M534.1,954c0-3.9-2.6-7.1-6.8-7.1c-4.1,0-6.8,3.2-6.8,7.1c0,3.9,2.7,7.1,6.8,7.1C531.5,961.1,534.1,957.9,534.1,954z"/>
	<path class="st8" d="M545.2,935.7v26.9h-2v-26.9H545.2z"/>
	<path class="st8" d="M567.3,945.3v17.3h-2V960c-1.3,1.8-3.1,2.8-5.5,2.8c-5.1,0-7.2-3.3-7.2-8.3c0-4.3,0-9.3,0-9.3h2
		c0,0,0,5.3,0,9.3c0,4.6,2.1,6.4,5.2,6.4c3,0,5.5-1.8,5.5-6v-9.7H567.3z"/>
	<path class="st8" d="M586.1,948.7l-1.8,0.8c-0.4-1.5-1.9-2.5-4.4-2.5c-2.6,0-4.1,1.1-4,3.2c0.1,1.5,1.7,2.1,4.6,2.8
		c3,0.7,6.3,1.5,6.3,5.1c0,3.3-3.1,5-6.4,5c-4.2,0-6.2-1.9-7-4l1.8-0.8c0.5,1.8,2.3,2.9,5.1,2.9c2.1,0,4.4-0.9,4.4-3.1
		c0-1.9-1.6-2.5-4.9-3.3c-3.8-0.9-6-2-6.1-4.6c-0.2-2.9,2-5,6-5C583.2,945,585.4,946.5,586.1,948.7z"/>
	<path class="st8" d="M619.1,962.6c-1.9,0-3.5-1.1-4-3.6c-1.3,2.2-3.5,3.6-6.5,3.6c-4.8,0-7.9-3.7-7.9-8.2c0-4.5,3.2-8.2,7.9-8.2
		c2.6,0,4.7,1.1,6,2.8l0-2h1.8c0,0,0,4.6,0,6.9c0,5.1,0.8,7,2.7,7c2,0,4.1-2.8,3.7-7.7c-0.6-7.1-5.9-11.6-13.6-11.6
		c-7,0-12.3,4.3-13.6,10.9c-0.9,4.8,0.7,9,4.3,11.7c4.1,3.1,10,3.6,15.4,1.5l0.7,1.5c-3.9,1.6-11.6,2.4-17.2-1.7
		c-4.1-3.1-5.9-8-4.9-13.3c1.3-7.1,6.8-12.2,15.3-12.2c7.2,0,14.5,3.8,15.4,13.1C625.1,959.3,622.1,962.6,619.1,962.6z M614.5,954.4
		c0-3.6-2.1-6.5-5.8-6.5c-3.8,0-6.1,2.9-6.1,6.5c0,3.6,2.2,6.5,6.1,6.5C612.4,961,614.5,958,614.5,954.4z"/>
	<path class="st8" d="M648.2,945.3v16.5c0,5.9-3.6,8.8-8.4,8.8c-3.2,0-5.9-1.5-7.6-3.7l1.6-1c1.4,1.8,3.4,2.9,5.9,2.9
		c4.1,0,6.6-2.4,6.6-6.9v-2.5c-1.4,2-3.6,3.4-6.6,3.4c-5.2,0-8.7-4-8.7-8.9c0-5,3.5-8.9,8.7-8.9c3,0,5.3,1.3,6.6,3.4v-3.1H648.2z
		 M646.1,954c0-3.9-2.4-7.1-6.5-7.1c-4.1,0-6.6,3.2-6.6,7.1c0,3.9,2.5,7.1,6.6,7.1C643.7,961.1,646.1,957.9,646.1,954z"/>
	<path class="st8" d="M682,953.3c0,4.3,0,9.3,0,9.3h-2c0,0,0-5.3,0-9.3c0-4.6-2-6.4-5.1-6.4c-3,0-5,1.8-5,6.4v9.3h-2
		c0,0,0-5.3,0-9.3c0-4.6-2-6.4-5.1-6.4c-3,0-5,1.8-5,6.4v9.3h-2v-17.3h2v2.4c1.1-1.7,2.9-2.7,5.2-2.7c3.2,0,5.1,1.4,6.1,3.6
		c1.2-2.2,3.3-3.6,6-3.6C680.3,945,682,948.4,682,953.3z"/>
	<path class="st8" d="M704,951v11.6h-2v-2.7c-1.6,1.7-3.9,3-6.8,3c-3.8,0-6.1-1.9-6.1-4.8c0-3.2,2.4-4.6,7-5.2c5-0.7,6-0.8,6-2.3
		c0-2-1.8-3.7-4.9-3.7c-3.8,0-5.1,2-5.3,3.4l-1.9-0.4c0.5-2.2,2.5-4.8,7.2-4.8C700.9,945,704,946.8,704,951z M702,953.8
		c-1.1,0.2-3.7,0.6-6.1,1c-3.3,0.4-4.9,1.4-4.9,3.4c0,1.8,1.5,2.8,4.2,2.8c3.2,0,6.7-2.2,6.7-5.8V953.8z"/>
	<path class="st8" d="M714.2,940.7c0,0.7-0.6,1.3-1.4,1.3c-0.8,0-1.4-0.6-1.4-1.3c0-0.8,0.6-1.3,1.4-1.3
		C713.5,939.4,714.2,939.9,714.2,940.7z M711.8,945.3h2v17.3h-2V945.3z"/>
	<path class="st8" d="M724,935.7v26.9h-2v-26.9H724z"/>
	<path class="st8" d="M734.2,961.6c0,0.7-0.6,1.3-1.4,1.3c-0.8,0-1.4-0.6-1.4-1.3c0-0.7,0.6-1.3,1.4-1.3
		C733.6,960.3,734.2,960.9,734.2,961.6z"/>
	<path class="st8" d="M755.5,958l1.7,0.8c-1.5,2.4-4.1,4.1-7.4,4.1c-5.2,0-8.9-4-8.9-8.9c0-5,3.7-8.9,8.9-8.9c3.3,0,6,1.6,7.4,4.1
		l-1.7,0.8c-1.2-1.8-3.2-3-5.7-3c-4.2,0-6.9,3.2-6.9,7.1c0,3.9,2.7,7.1,6.9,7.1C752.3,961.1,754.3,959.9,755.5,958z"/>
	<path class="st8" d="M780.3,954c0,4.9-3.5,8.9-8.8,8.9c-5.2,0-8.9-4-8.9-8.9s3.6-8.9,8.9-8.9C776.8,945,780.3,949.1,780.3,954z
		 M778.3,954c0-3.9-2.6-7.1-6.8-7.1c-4.1,0-6.8,3.2-6.8,7.1c0,3.9,2.7,7.1,6.8,7.1C775.7,961.1,778.3,957.9,778.3,954z"/>
	<path class="st8" d="M813.4,953.3c0,4.3,0,9.3,0,9.3h-2c0,0,0-5.3,0-9.3c0-4.6-2-6.4-5.1-6.4c-3,0-5,1.8-5,6.4v9.3h-2
		c0,0,0-5.3,0-9.3c0-4.6-2-6.4-5.1-6.4c-3,0-5,1.8-5,6.4v9.3h-2v-17.3h2v2.4c1.1-1.7,2.9-2.7,5.2-2.7c3.2,0,5.1,1.4,6.1,3.6
		c1.2-2.2,3.3-3.6,6-3.6C811.6,945,813.4,948.4,813.4,953.3z"/>
</g>
<g>
	<g>
		<circle class="st19" cx="406.7" cy="839.4" r="20.5"/>
		<circle class="st20" cx="406.7" cy="839.4" r="26.1"/>
		<g>
			<circle class="st19" cx="429.6" cy="839.4" r="1.3"/>
			<circle class="st19" cx="383.7" cy="839.4" r="1.3"/>
		</g>
	</g>
	<path class="st8" d="M416.8,843.8c-0.1-0.2-1-0.6-1-0.6c-0.4-0.2-2.9-1.4-3.4-1.6c-0.4-0.1-0.9-0.3-1.3,0.3
		c-0.3,0.5-1.3,1.6-1.6,1.9c-0.2,0.2-0.4,0.3-0.9,0.1c-0.1,0-2.4-1-4-2.4c-1.4-1.2-2.4-2.8-2.7-3.4c-0.2-0.4-0.1-0.5,0.2-0.8
		c0.2-0.2,0.9-1,1-1.1c0.1-0.2,0.3-0.6,0.3-0.6c0.2-0.4,0.1-0.8,0-1c-0.1-0.2-1.4-3.3-1.5-3.6c-0.4-0.9-0.8-0.9-1.2-0.9
		c-0.2,0-1.9,0-2.5,0.6l-0.1,0.1c-0.5,0.6-1.7,1.8-1.7,4.1c0,0.5,0.1,1.1,0.3,1.7c0.3,1.1,1,2.4,1.8,3.5c0,0,1.3,1.8,1.9,2.5
		c2,2.3,4.3,4.1,6.6,5c2.9,1.2,4.2,1.4,4.9,1.4c0.3,0,1-0.2,1.1-0.2c0.9-0.1,3-1.2,3.5-2.4C417,845.1,417,844,416.8,843.8z"/>
</g>
<g>
	<g>
		<circle class="st19" cx="406.7" cy="895.6" r="20.5"/>
		<circle class="st20" cx="406.7" cy="895.6" r="26.1"/>
		<g>
			<circle class="st19" cx="429.6" cy="895.6" r="1.3"/>
			<circle class="st19" cx="383.7" cy="895.6" r="1.3"/>
		</g>
	</g>
	<g>
		<g>
			<path class="st8" d="M418.8,895c-0.2-6.5-5.4-11.5-11.9-11.5c-6.4,0-11.6,5-11.9,11.3c0,0.2,0,0.3,0,0.5c0,2.1,0.6,4.2,1.6,6
				c0,0,0,0.1,0,0.1l-2.1,6.2c0,0.1,0.1,0.2,0.1,0.1l6.5-2.1c0,0,0.1,0,0.1,0c1.7,0.9,3.7,1.4,5.6,1.4c6.6,0,11.9-5.3,11.9-11.9
				C418.8,895.2,418.8,895,418.8,895z M398.8,900.6c-1.1-1.6-1.6-3.4-1.6-5.3c0-0.3,0-0.6,0-0.9c0.5-5,4.6-8.7,9.6-8.7
				c5,0,9.3,3.9,9.7,8.9c0,0.3,0,0.5,0,0.8c0,5.3-4.4,9.6-9.7,9.6c-1.4,0-2.8-0.3-4.1-0.9c-0.4-0.2-1-0.6-1.2-0.7c0,0-0.1,0-0.1,0
				l-3.3,1c-0.1,0-0.1,0-0.1-0.1l1.1-3.1c0-0.1,0-0.1,0-0.2C399,900.8,398.9,900.7,398.8,900.6z"/>
		</g>
		<path class="st8" d="M412.6,897.9c-0.1-0.1-0.6-0.4-0.6-0.4c-0.2-0.1-1.7-0.8-2-0.9c-0.2-0.1-0.5-0.2-0.8,0.2
			c-0.2,0.3-0.7,0.9-0.9,1.1c-0.1,0.1-0.2,0.2-0.5,0c0,0-1.4-0.6-2.3-1.4c-0.8-0.7-1.4-1.6-1.6-2c-0.1-0.2,0-0.3,0.1-0.5
			c0.1-0.1,0.5-0.6,0.6-0.7c0.1-0.1,0.2-0.3,0.2-0.3c0.1-0.2,0-0.4,0-0.6c0-0.1-0.8-1.9-0.9-2.1c-0.2-0.5-0.5-0.5-0.7-0.5
			c-0.1,0-1.1,0-1.4,0.4l-0.1,0.1c-0.3,0.3-1,1-1,2.4c0,0.3,0,0.6,0.2,1c0.2,0.7,0.6,1.4,1,2c0,0,0.8,1,1.1,1.5
			c1.2,1.4,2.5,2.4,3.8,2.9c1.7,0.7,2.4,0.8,2.9,0.8c0.2,0,0.6-0.1,0.6-0.1c0.5,0,1.8-0.7,2-1.4
			C412.7,898.7,412.7,898.1,412.6,897.9z"/>
	</g>
</g>
<g>
	<g>
		<circle class="st19" cx="406.8" cy="950.9" r="20.5"/>
		<circle class="st20" cx="406.8" cy="950.9" r="26.1"/>
		<g>
			<circle class="st19" cx="429.8" cy="950.9" r="1.3"/>
			<circle class="st19" cx="383.8" cy="950.9" r="1.3"/>
		</g>
	</g>
	<path class="st8" d="M416.9,943.1h-20.4c-1,0-1.8,0.8-1.8,1.8V957c0,1,0.8,1.8,1.8,1.8h20.4c1,0,1.8-0.8,1.8-1.8v-12.2
		C418.7,943.9,417.9,943.1,416.9,943.1z M417.3,945.1l-10.3,5.7c-0.1,0-0.1,0.1-0.2,0.1h-0.1c-0.1,0-0.1,0-0.2-0.1l-10.3-5.7
		c-0.2-0.1-0.3-0.4-0.2-0.6c0.1-0.2,0.4-0.3,0.6-0.2l10.1,5.6l10.1-5.6c0.2-0.1,0.4,0,0.6,0.2C417.5,944.8,417.5,945,417.3,945.1z"
		/>
</g>
<g>
	<path class="st8" d="M372.7,33l-19.4,60.1h-4.6l-17-52.9l-17,52.9H310L290.5,33h4.7l17.2,53l16.9-53h4.6l16.9,53L368,33H372.7z"/>
	<path class="st8" d="M420.3,88.6v4.5h-39.9V33h39.4v4.5h-34.9v23.4h32.3v4.5h-32.3v23.4H420.3z"/>
	<path class="st8" d="M489.2,74.8H463l-7,18.3h-4.8L474.2,33h3.9L501,93.1h-4.8L489.2,74.8z M487.5,70.3l-11.4-29.8l-11.3,29.8
		H487.5z"/>
	<path class="st8" d="M547.3,93.1L534,69.6c-1,0.1-2.1,0.2-3.1,0.2h-16.8v23.4h-4.6V33h21.4c12.5,0,19.8,7.6,19.8,18.4
		c0,8.2-4.3,14.8-12.2,17.3l13.9,24.5H547.3z M531.3,65.3c9,0,14.8-5.5,14.8-13.9c0-8.5-6-13.9-14.8-13.9h-17.2v27.8H531.3z"/>
	<path class="st8" d="M602.7,88.6v4.5h-39.9V33h39.4v4.5h-34.9v23.4h32.3v4.5h-32.3v23.4H602.7z"/>
	<path class="st8" d="M682.6,33v35.2c0,17.5-9.8,25.5-22.2,25.5c-12.4,0-22.6-7.6-22.6-25.6V33h4.5v35.8c0,14.2,8.2,20.4,18.1,20.4
		c9.9,0,17.6-6.3,17.6-20.4V33H682.6z"/>
	<path class="st8" d="M741.3,33v60.1h-4.2L700,40.6v52.6h-4.5V33h4.2l37.1,52.1V33H741.3z"/>
	<path class="st8" d="M802.9,63.1c0,18-11.7,30.1-32.1,30.1h-16.7V33h16.7C790.9,33,802.9,45,802.9,63.1z M798,63.1
		c0-15.3-10.1-25.6-26-25.6c-7.2,0-11.2,0-13.3,0v51.2c2.1,0,6.1,0,13.3,0C788.2,88.6,798,78.3,798,63.1z"/>
	<path class="st8" d="M854,88.6v4.5h-39.9V33h39.4v4.5h-34.9v23.4h32.3v4.5h-32.3v23.4H854z"/>
	<path class="st8" d="M903.8,93.1l-13.3-23.5c-1,0.1-2.1,0.2-3.1,0.2h-16.8v23.4H866V33h21.4c12.5,0,19.8,7.6,19.8,18.4
		c0,8.2-4.3,14.8-12.2,17.3L909,93.1H903.8z M887.8,65.3c9,0,14.8-5.5,14.8-13.9c0-8.5-6-13.9-14.8-13.9h-17.2v27.8H887.8z"/>
</g>
<path class="st8" d="M182.3,128.8v80.7H167v-50.9l-19.7,31.8h-9.1l-19.7-31.8v50.9h-15.3v-80.7h14.3l25.3,40.8l25.5-40.8H182.3z"/>
<path class="st8" d="M263.8,191.3h-27.3l-6.2,18.2h-17.4l29.5-80.7h15.7l29.5,80.7h-17.4L263.8,191.3z M258.8,176.7l-8.5-24.8
	l-8.5,24.8H258.8z"/>
<path class="st8" d="M333.5,128.8v80.7h-15.3v-80.7H333.5z"/>
<path class="st8" d="M432.1,128.8v80.7H417l-32.4-52.4v52.4h-15.3v-80.7h15l32.5,52.4v-52.4H432.1z"/>
<path class="st8" d="M523.6,143.6H502v66h-15.3v-66h-21.7v-14.8h58.7V143.6z"/>
<path class="st8" d="M610.1,194.9v14.6h-53.6v-80.7h52.9v14.8h-37.6v18.3h34v14.6h-34v18.3H610.1z"/>
<path class="st8" d="M707,128.8v80.7h-15.1l-32.4-52.4v52.4h-15.3v-80.7h15l32.5,52.4v-52.4H707z"/>
<path class="st8" d="M788.5,191.3h-27.3l-6.2,18.2h-17.4l29.5-80.7h15.7l29.5,80.7h-17.4L788.5,191.3z M783.4,176.7l-8.5-24.8
	l-8.5,24.8H783.4z"/>
<path class="st8" d="M905.7,128.8v80.7h-15.1l-32.4-52.4v52.4h-15.3v-80.7h15l32.5,52.4v-52.4H905.7z"/>
<path class="st8" d="M997.2,184.7l13.8,6.9c-6.6,11.4-18.6,18.9-33.4,18.9c-23.2,0-39.1-18-39.1-41.2s15.9-41.2,39.1-41.2
	c14.9,0,26.9,7.4,33.4,18.9l-13.8,6.9c-4-6.5-10.7-10.5-19.6-10.5c-14.6,0-23.4,11.1-23.4,25.8c0,14.6,8.8,25.7,23.4,25.7
	C986.5,195,993.2,191.1,997.2,184.7z"/>
<path class="st8" d="M1096.4,194.9v14.6h-53.6v-80.7h52.9v14.8h-37.6v18.3h34v14.6h-34v18.3H1096.4z"/>
<g>
	<g>
		<linearGradient id="SVGID_1_" gradientUnits="userSpaceOnUse" x1="748.2979" y1="424.9531" x2="725.1819" y2="372.2069">
			<stop  offset="0" style="stop-color:#F15A24"/>
			<stop  offset="1" style="stop-color:#F1A524"/>
		</linearGradient>
		<path class="st21" d="M723.2,382.6V402c0,0,0,0,0,0l15.7-9.1c1-0.6,1.5-1.6,1.5-2.7v-17.6L723.2,382.6
			C723.2,382.6,723.2,382.6,723.2,382.6z"/>
		<linearGradient id="SVGID_2_" gradientUnits="userSpaceOnUse" x1="730.344" y1="432.3282" x2="707.2281" y2="379.5819">
			<stop  offset="0" style="stop-color:#F15A24"/>
			<stop  offset="1" style="stop-color:#F1A524"/>
		</linearGradient>
		<path class="st22" d="M719,382.6l-17.3-10v17.6c0,1.1,0.6,2.1,1.5,2.7L719,402c0,0,0.1,0,0.1,0L719,382.6
			C719,382.6,719,382.6,719,382.6z"/>
		<linearGradient id="SVGID_3_" gradientUnits="userSpaceOnUse" x1="745.6617" y1="425.2992" x2="722.5459" y2="372.5529">
			<stop  offset="0" style="stop-color:#F15A24"/>
			<stop  offset="1" style="stop-color:#F1A524"/>
		</linearGradient>
		<path class="st23" d="M719.5,378.6c1,0.6,2.1,0.6,3.1,0l15.7-9.1c0.2-0.1,0.3-0.2,0.4-0.3c-0.1-0.1-0.3-0.2-0.4-0.3l-15.7-9.1
			c-1-0.6-2.1-0.6-3.1,0l-15.7,9.1c-0.2,0.1-0.3,0.2-0.4,0.3c0.1,0.1,0.3,0.2,0.4,0.3L719.5,378.6z"/>
	</g>
	<linearGradient id="SVGID_4_" gradientUnits="userSpaceOnUse" x1="701.646" y1="335.2616" x2="788.8395" y2="539.2945">
		<stop  offset="4.049120e-07" style="stop-color:#63ACE5"/>
		<stop  offset="0.5249" style="stop-color:#0836C1"/>
	</linearGradient>
	<path class="st24" d="M766.2,351.8l-42.5-24.6c-1.6-0.9-3.5-0.9-5.1,0l-9.1,5.2c-1.4,0.8-1.4,2.9,0,3.7l11.5,6.7l0.1,0l30.4,17.5
		c1.6,0.9,2.5,2.6,2.5,4.4v32.1c0,1.8-1,3.5-2.5,4.4l-27.8,16.1c-1.6,0.9-3.5,0.9-5.1,0l-27.8-16.1c-1.6-0.9-2.5-2.6-2.5-4.4v-32.1
		c0-1.8,1-3.5,2.5-4.4l15.5-9c1.3-0.7,1.3-2.6,0-3.3l-9.3-5.4c-1.6-0.9-3.5-0.9-5.1,0l-15.8,9.1c-1.6,0.9-2.5,2.6-2.5,4.4v49.1
		c0,1.8,1,3.5,2.5,4.4l42.5,24.6c1.6,0.9,3.5,0.9,5.1,0l42.5-24.6c1.6-0.9,2.5-2.6,2.5-4.4v-49.1
		C768.7,354.4,767.7,352.7,766.2,351.8z"/>
</g>
<g>
	<path class="st8" d="M422.6,1045.9c0,3.3-2.7,6.1-6.1,6.1c-3.3,0-6.1-2.7-6.1-6.1c0-3.3,2.7-6.1,6.1-6.1
		C419.9,1039.9,422.6,1042.6,422.6,1045.9z M421.5,1045.9c0-2.8-2.2-5-5-5c-2.8,0-5,2.2-5,5s2.2,5,5,5
		C419.3,1050.9,421.5,1048.7,421.5,1045.9z M414.5,1045.9c0,1.3,0.8,2.4,2.1,2.4c0.8,0,1.4-0.4,1.8-1l0.8,0.4
		c-0.5,0.9-1.5,1.5-2.6,1.5c-1.8,0-3.1-1.5-3.1-3.3c0-1.8,1.3-3.3,3.1-3.3c1.2,0,2.1,0.6,2.6,1.5l-0.8,0.4c-0.4-0.6-1-1-1.8-1
		C415.3,1043.6,414.5,1044.6,414.5,1045.9z"/>
	<path class="st8" d="M440.4,1043.7c0,2-1.5,3.6-3.7,3.6h-3.2v4.4h-1.2v-11.7h4.4C439,1040.1,440.4,1041.7,440.4,1043.7z
		 M439.2,1043.7c0-1.3-0.9-2.4-2.4-2.4h-3.2v4.9h3.2C438.3,1046.1,439.2,1045,439.2,1043.7z"/>
	<path class="st8" d="M451.4,1041.3h-3.6v10.5h-1.2v-10.5H443v-1.2h8.5V1041.3z"/>
	<path class="st8" d="M469.3,1048.5c0,2.3-2.1,3.4-4.3,3.4c-2.6,0-4.2-1.3-4.7-2.6l1.2-0.4c0.5,1.1,1.7,1.8,3.5,1.8
		c1.2,0,3.1-0.6,3.1-2.2c0-1.3-1-1.6-3.3-2c-2.3-0.4-4.1-1.1-4.2-3.2c0-1.7,1.3-3.3,4.2-3.3c2.1,0,3.6,1.1,4,2.5l-1.2,0.4
		c-0.3-1.3-1.6-1.7-2.9-1.7c-1.8,0-3,0.7-3,2.1c0,1.2,1,1.6,3.2,2C467.1,1045.6,469.3,1046.2,469.3,1048.5z"/>
	<path class="st8" d="M479,1048.4h-4.7l-1.3,3.4h-1.3l4.4-11.7h1.1l4.4,11.7h-1.3L479,1048.4z M478.5,1047.2l-1.9-5.2l-1.9,5.2
		H478.5z"/>
	<path class="st8" d="M493.7,1040.1v11.7h-1.1l-6.6-9.5v9.5h-1.2v-11.7h1.1l6.6,9.5v-9.5H493.7z"/>
	<path class="st8" d="M502.2,1048.6c0,2.1-0.9,3.3-2.8,3.3c-1.4,0-2.4-0.8-2.7-1.3l0.9-0.7c0.3,0.4,0.9,0.8,1.7,0.8
		c1,0,1.6-0.6,1.6-2c0-1.6,0-8.6,0-8.6h1.2C502.2,1040.1,502.2,1046.6,502.2,1048.6z"/>
	<path class="st8" d="M512.3,1048.4h-4.7l-1.3,3.4H505l4.4-11.7h1.1l4.4,11.7h-1.3L512.3,1048.4z M511.9,1047.2l-1.9-5.2l-1.9,5.2
		H511.9z"/>
	<path class="st8" d="M521.1,1047.3v4.4h-1.2v-4.4l-4.1-7.3h1.4l3.3,5.9l3.3-5.9h1.4L521.1,1047.3z"/>
	<path class="st8" d="M533.3,1048.4h-4.7l-1.3,3.4H526l4.4-11.7h1.1l4.4,11.7h-1.3L533.3,1048.4z M532.9,1047.2l-1.9-5.2l-1.9,5.2
		H532.9z"/>
	<path class="st8" d="M553.9,1048.5c0,2.3-2.1,3.4-4.3,3.4c-2.6,0-4.2-1.3-4.7-2.6l1.2-0.4c0.5,1.1,1.7,1.8,3.5,1.8
		c1.2,0,3.1-0.6,3.1-2.2c0-1.3-1-1.6-3.3-2c-2.3-0.4-4.1-1.1-4.2-3.2c0-1.7,1.3-3.3,4.2-3.3c2.1,0,3.6,1.1,4,2.5l-1.2,0.4
		c-0.3-1.3-1.6-1.7-2.9-1.7c-1.8,0-3,0.7-3,2.1c0,1.2,1,1.6,3.2,2C551.8,1045.6,553.9,1046.2,553.9,1048.5z"/>
	<path class="st8" d="M568.2,1045.9c0,3.3-2.4,6-5.7,6c-3.3,0-5.7-2.7-5.7-6c0-3.3,2.4-6,5.7-6
		C565.9,1040,568.2,1042.6,568.2,1045.9z M567,1045.9c0-2.6-1.8-4.8-4.4-4.8c-2.6,0-4.4,2.1-4.4,4.8c0,2.6,1.8,4.8,4.4,4.8
		C565.2,1050.7,567,1048.6,567,1045.9z"/>
	<path class="st8" d="M578.7,1050.6v1.2h-7v-11.7h1.2v10.5H578.7z"/>
	<path class="st8" d="M590.4,1040.1c0,0,0,4.6,0,7c0,3.3-1.9,4.8-4.3,4.8c-2.4,0-4.4-1.4-4.4-4.8c0-2.4,0-7.1,0-7.1h1.2
		c0,0,0,5.3,0,7.1c0,2.3,1.5,3.5,3.2,3.5s3.1-1.2,3.1-3.5c0-2.2,0-7.1,0-7.1H590.4z"/>
	<path class="st8" d="M602.7,1048.5c0,2.3-2.1,3.4-4.3,3.4c-2.6,0-4.2-1.3-4.7-2.6l1.2-0.4c0.5,1.1,1.7,1.8,3.5,1.8
		c1.2,0,3.1-0.6,3.1-2.2c0-1.3-1-1.6-3.3-2c-2.3-0.4-4.1-1.1-4.2-3.2c0-1.7,1.3-3.3,4.2-3.3c2.1,0,3.6,1.1,4,2.5l-1.2,0.4
		c-0.3-1.3-1.6-1.7-2.9-1.7c-1.8,0-3,0.7-3,2.1c0,1.2,1,1.6,3.2,2C600.6,1045.6,602.7,1046.2,602.7,1048.5z"/>
	<path class="st8" d="M607.2,1040.1v11.7H606v-11.7H607.2z"/>
	<path class="st8" d="M626.9,1045.9c0,3.2-2.3,5.8-5.9,5.8h-3.6v-11.7h3.6C624.7,1040.1,626.9,1042.7,626.9,1045.9z M625.6,1045.9
		c0-2.6-1.8-4.7-4.7-4.7h-2.3v9.3c0.5,0,1.2,0,2.3,0C623.9,1050.6,625.6,1048.5,625.6,1045.9z"/>
	<path class="st8" d="M631.6,1040.1v11.7h-1.2v-11.7H631.6z"/>
	<path class="st8" d="M645.5,1049.2c-1,1.6-2.8,2.7-4.8,2.7c-3.3,0-5.8-2.7-5.8-6c0-3.3,2.5-6,5.8-6c2.1,0,3.8,1.1,4.8,2.7l-1.1,0.5
		c-0.8-1.2-2.2-2-3.8-2c-2.6,0-4.5,2.1-4.5,4.8c0,2.6,1.9,4.8,4.5,4.8c1.5,0,2.8-0.7,3.6-1.8v-2h-3.7v-1.2h4.9V1049.2z"/>
	<path class="st8" d="M650.3,1040.1v11.7H649v-11.7H650.3z"/>
	<path class="st8" d="M661.8,1041.3h-3.6v10.5H657v-10.5h-3.6v-1.2h8.5V1041.3z"/>
	<path class="st8" d="M670.3,1048.4h-4.7l-1.3,3.4H663l4.4-11.7h1.1l4.4,11.7h-1.3L670.3,1048.4z M669.9,1047.2l-1.9-5.2l-1.9,5.2
		H669.9z"/>
	<path class="st8" d="M683.2,1050.6v1.2h-7v-11.7h1.2v10.5H683.2z"/>
	<path class="st8" d="M693.8,1040.1v11.7h-1.2v-11.7H693.8z"/>
	<path class="st8" d="M706.4,1040.1v11.7h-1.1l-6.6-9.5v9.5h-1.2v-11.7h1.1l6.6,9.5v-9.5H706.4z"/>
	<path class="st8" d="M719.6,1045.9c0,3.2-2.3,5.8-5.9,5.8h-3.6v-11.7h3.6C717.3,1040.1,719.6,1042.7,719.6,1045.9z M718.3,1045.9
		c0-2.6-1.8-4.7-4.7-4.7h-2.3v9.3c0.5,0,1.2,0,2.3,0C716.6,1050.6,718.3,1048.5,718.3,1045.9z"/>
	<path class="st8" d="M734.1,1045.9c0,3.3-2.4,6-5.7,6c-3.3,0-5.7-2.7-5.7-6c0-3.3,2.4-6,5.7-6
		C731.7,1040,734.1,1042.6,734.1,1045.9z M732.8,1045.9c0-2.6-1.8-4.8-4.4-4.8c-2.6,0-4.4,2.1-4.4,4.8c0,2.6,1.8,4.8,4.4,4.8
		C731,1050.7,732.8,1048.6,732.8,1045.9z"/>
	<path class="st8" d="M746.5,1040.1v11.7h-1.1l-6.6-9.5v9.5h-1.2v-11.7h1.1l6.6,9.5v-9.5H746.5z"/>
	<path class="st8" d="M757.9,1050.6v1.2h-7.8v-11.7h7.7v1.2h-6.5v4h6v1.2h-6v4H757.9z"/>
	<path class="st8" d="M769.8,1048.5c0,2.3-2.1,3.4-4.3,3.4c-2.6,0-4.2-1.3-4.7-2.6l1.2-0.4c0.5,1.1,1.7,1.8,3.5,1.8
		c1.2,0,3.1-0.6,3.1-2.2c0-1.3-1-1.6-3.3-2c-2.3-0.4-4.1-1.1-4.2-3.2c0-1.7,1.3-3.3,4.2-3.3c2.1,0,3.6,1.1,4,2.5l-1.2,0.4
		c-0.3-1.3-1.6-1.7-2.9-1.7c-1.8,0-3,0.7-3,2.1c0,1.2,1,1.6,3.2,2C767.7,1045.6,769.8,1046.2,769.8,1048.5z"/>
	<path class="st8" d="M774.3,1040.1v11.7h-1.2v-11.7H774.3z"/>
	<path class="st8" d="M784.9,1048.4h-4.7l-1.3,3.4h-1.3l4.4-11.7h1.1l4.4,11.7h-1.3L784.9,1048.4z M784.5,1047.2l-1.9-5.2l-1.9,5.2
		H784.5z"/>
</g>
</svg>
